SplineFontDB: 3.0
FontName: Abc-Mono
FullName: Abc Mono
FamilyName: Abc-Mono
Weight: Normal
Copyright: Created by Elise Duverdier, 2016, with FontForge 2.0 (http://fontforge.sf.net)
UComments: "2016-4-2: Created." 
Version: 001.000
ItalicAngle: 0
UnderlinePosition: -102.4
UnderlineWidth: 51.2
Ascent: 819
Descent: 205
LayerCount: 2
Layer: 0 0 "Back"  1
Layer: 1 0 "Fore"  0
XUID: [1021 552 1961940206 5428288]
FSType: 0
OS2Version: 0
OS2_WeightWidthSlopeOnly: 0
OS2_UseTypoMetrics: 1
CreationTime: 1459623653
ModificationTime: 1459972901
OS2TypoAscent: 0
OS2TypoAOffset: 1
OS2TypoDescent: 0
OS2TypoDOffset: 1
OS2TypoLinegap: 92
OS2WinAscent: 0
OS2WinAOffset: 1
OS2WinDescent: 0
OS2WinDOffset: 1
HheadAscent: 0
HheadAOffset: 1
HheadDescent: 0
HheadDOffset: 1
MarkAttachClasses: 1
DEI: 91125
Encoding: Custom
Compacted: 1
UnicodeInterp: none
NameList: Adobe Glyph List
DisplaySize: -48
AntiAlias: 1
FitToEm: 1
WinInfo: 0 19 14
BeginPrivate: 0
EndPrivate
Grid
-1024 -135 m 0
 2048 -135 l 0
  Named: "desc" 
-1024 587.1 m 0
 2048 587.1 l 0
  Named: "asc" 
-1024 539.1 m 0
 2048 539.1 l 0
  Named: "cap" 
-1024 424.867 m 0
 2048 424.867 l 0
  Named: "x" 
EndSplineSet
BeginChars: 412 156

StartChar: A
Encoding: 256 65 0
Width: 500
VWidth: -12564
Flags: W
HStem: -0 21G<22 79.5862 388.184 448> 87 43<116 349> 520 20G<209 262.148>
LayerCount: 2
Fore
SplineSet
255 540 m 1
 448 -0 l 1
 396 -0 l 1
 362 87 l 1
 105 87 l 1
 72 -0 l 1
 22 -0 l 1
 209 539 l 1
 255 540 l 1
232 466 m 1
 116 130 l 1
 349 130 l 1
 232 466 l 1
EndSplineSet
Validated: 1
EndChar

StartChar: B
Encoding: 257 66 1
Width: 500
VWidth: -12554
Flags: W
HStem: -11 49<92 312.061> 252 49<123 305.662> 500 49<93.2157 300.569>
VStem: 43 49<38 491.338> 340 49<334.987 461.815> 357 49<86.4207 203.364>
LayerCount: 2
Fore
SplineSet
233 549 m 1xf4
 312 548 386 492 389 400 c 0xf8
 388 354 368 304 324 275 c 1
 371 246 406 216 406 146 c 0
 407 71 345 -11 260 -11 c 2
 43 -11 l 1
 43 534 l 1
 106 541 169 548 233 549 c 1xf4
233 500 m 0
 194 500 117 492 92 489 c 1
 92 38 l 1
 260 38 l 2
 313 39 351 94 357 146 c 0xf4
 356 203 303 244 245 252 c 2
 123 252 l 1
 123 301 l 1
 245 301 l 2
 302 302 336 339 340 400 c 0
 339 458 297 496 233 500 c 0
EndSplineSet
Validated: 33
EndChar

StartChar: Z
Encoding: 258 90 2
Width: 500
VWidth: -12564
Flags: W
HStem: -0 47<126 389> 491 49<48 332>
LayerCount: 2
Fore
SplineSet
48 540 m 1
 418 539 l 1
 126 47 l 1
 389 49 l 1
 389 -0 l 1
 37 -0 l 1
 332 494 l 1
 48 491 l 1
 48 540 l 1
EndSplineSet
Validated: 1
EndChar

StartChar: E
Encoding: 259 69 3
Width: 500
VWidth: -12564
Flags: W
HStem: 1 49<106 378> 234 49<106 340> 491 48<106 378>
VStem: 57 49<50 234 283 491>
LayerCount: 2
Fore
SplineSet
57 539 m 1
 57 539 379 539 378 539 c 2
 378 491 l 1
 106 491 l 1
 106 283 l 1
 340 283 l 1
 340 234 l 1
 106 234 l 1
 106 50 l 1
 378 50 l 1
 378 1 l 2
 57 1 l 1
 57 539 l 1
EndSplineSet
Validated: 37
EndChar

StartChar: R
Encoding: 260 82 4
Width: 500
VWidth: -12564
Flags: W
HStem: 237 41<123 162.391 199 269.702> 493 49<100 275.452>
VStem: 51 49<3 493> 315 49<319.518 453.439>
LayerCount: 2
Fore
SplineSet
51 542 m 1
 103 542 153 542 205 542 c 0
 288 540 365 499 364 385 c 0
 363 286 297 246 199 243 c 1
 250 217 273 171 294 139 c 0
 328 88 349 60 390 45 c 1
 390 -3 l 1
 327 4 285 66 253 114 c 0
 221 162 197 207 123 237 c 1
 123 278 l 1
 225 278 308 276 315 385 c 0
 314 451 275 490 205 493 c 2
 100 493 l 1
 100 3 l 1
 51 3 l 1
 51 542 l 1
EndSplineSet
Validated: 33
EndChar

StartChar: T
Encoding: 261 84 5
Width: 500
VWidth: -12564
Flags: W
HStem: 0 21G<191 240> 491 48<47 191 240 398>
VStem: 191 49<0 491>
LayerCount: 2
Fore
SplineSet
47 539 m 1
 398 539 l 1
 398 491 l 1
 240 491 l 1
 240 0 l 1
 191 0 l 1
 191 491 l 1
 47 491 l 1
 47 539 l 1
EndSplineSet
Validated: 1
EndChar

StartChar: Y
Encoding: 262 89 6
Width: 500
VWidth: -12564
Flags: W
VStem: 202 50<2 208>
LayerCount: 2
Fore
SplineSet
90 538 m 1
 228 268 l 1
 364 538 l 1
 417 538 l 1
 252 208 l 1
 252 2 l 1
 202 2 l 1
 202 213 l 1
 37 538 l 1
 90 538 l 1
EndSplineSet
Validated: 1
EndChar

StartChar: U
Encoding: 263 85 7
Width: 500
VWidth: -12564
Flags: W
HStem: -1 49<146.789 293.863> 521 20G<51 100 341 390>
VStem: 51 49<90.8565 541> 341 49<93.3047 541>
LayerCount: 2
Fore
SplineSet
51 541 m 1
 100 541 l 1
 100 155 l 2
 100 94 148 49 225 48 c 0
 293 47 341 102 341 155 c 2
 341 541 l 1
 390 541 l 1
 390 155 l 2
 390 82 322 -1 225 -1 c 0
 129 -1 51 52 51 155 c 2
 51 541 l 1
EndSplineSet
Validated: 33
EndChar

StartChar: I
Encoding: 264 73 8
Width: 500
VWidth: -12564
Flags: W
HStem: -1 47<96 171 220 299> 494 46<96 171 220 299>
VStem: 171 49<46 494>
LayerCount: 2
Fore
SplineSet
96 540 m 1
 299 540 l 1
 299 494 l 1
 220 494 l 1
 220 46 l 1
 299 46 l 1
 299 -1 l 1
 96 -1 l 1
 96 46 l 1
 171 46 l 1
 171 494 l 1
 96 494 l 1
 96 540 l 1
EndSplineSet
Validated: 1
EndChar

StartChar: O
Encoding: 265 79 9
Width: 500
VWidth: -12564
Flags: W
HStem: -3 50<164.419 299.581> 493 49<164.419 299.581>
VStem: 27 45<158.29 381.623> 392 45<158.29 381.623>
LayerCount: 2
Fore
SplineSet
232 542 m 0
 348 542 437 418 437 270 c 0
 437 122 348 -3 232 -3 c 0
 116 -3 27 122 27 270 c 0
 27 418 116 542 232 542 c 0
232 493 m 0
 146 493 72 396 72 270 c 0
 72 144 146 47 232 47 c 0
 318 47 392 144 392 270 c 0
 392 396 318 493 232 493 c 0
EndSplineSet
Validated: 1
EndChar

StartChar: P
Encoding: 266 80 10
Width: 500
VWidth: -12564
Flags: W
HStem: 232 50<128 282.261> 490 49<109 287.488>
VStem: 59 50<1 490> 324 49<323.219 452.904>
LayerCount: 2
Fore
SplineSet
59 539 m 5
 111 539 162 539 214 539 c 4
 297 537 373 481 373 386 c 4
 373 300 307 232 216 232 c 6
 128 232 l 5
 128 282 l 5
 216 282 l 6
 269 283 325 322 324 386 c 4
 323 452 284 487 214 490 c 6
 109 490 l 5
 109 1 l 5
 59 1 l 5
 59 539 l 5
EndSplineSet
Validated: 33
EndChar

StartChar: Q
Encoding: 267 81 11
Width: 500
VWidth: -12528
Flags: W
HStem: -42 48<378.691 460> 72 9<207 219> 527 50<151.473 286.581>
VStem: 15 44<185.406 412.865> 379 45<185.4 412.865>
LayerCount: 2
Fore
SplineSet
219 577 m 0
 335 577 424 450 424 299 c 0
 424 204 388 119 333 69 c 1
 349 54 365 39 381 26 c 0
 400 13 422 4 460 6 c 1
 463 -42 l 1
 416 -44 379 -31 352 -13 c 0
 331 1 315 23 295 42 c 1
 272 30 246 22 219 22 c 0
 103 22 15 148 15 299 c 0
 15 450 103 577 219 577 c 0
219 527 m 0
 133 527 59 427 59 299 c 0
 59 220 87 152 129 112 c 1
 165 124 207 133 248 125 c 0
 265 121 281 112 296 101 c 1
 345 139 379 212 379 299 c 0
 379 427 305 527 219 527 c 0
208 81 m 0
 219 82 229 81 237 79 c 0
 240 78 242 77 245 76 c 1
 237 74 228 72 219 72 c 0
 207 72 195 74 184 78 c 1
 193 80 201 81 208 81 c 0
EndSplineSet
Validated: 41
EndChar

StartChar: S
Encoding: 268 83 12
Width: 500
VWidth: -12559
Flags: W
HStem: -7 47<133 281.319> 500 46<171.233 317.568>
VStem: 329 49<84.4832 219.357>
LayerCount: 2
Fore
SplineSet
236 546 m 0
 310 544 348 519 366 505 c 1
 342 462 l 1
 317 477 291 502 241 500 c 0
 181 500 130 460 122 388 c 0
 116 329 154 294 231 291 c 0
 323 282 378 260 378 147 c 0
 378 47 293 -7 209 -7 c 0
 157 -5 109 8 57 65 c 1
 87 103 l 1
 123 68 149 39 210 40 c 0
 276 40 329 91 329 139 c 0
 329 205 313 240 233 244 c 0
 145 252 71 276 73 388 c 0
 74 484 151 546 236 546 c 0
EndSplineSet
Validated: 33
EndChar

StartChar: D
Encoding: 269 68 13
Width: 500
VWidth: -12564
Flags: W
HStem: 0 50<119 267.333> 490 49<100 266.62>
VStem: 51 49<0 490> 341 49<143.717 402.583>
LayerCount: 2
Fore
SplineSet
51 539 m 1
 103 540 153 539 205 539 c 0
 338 538 391 401 390 274 c 0
 389 162 352 0 207 0 c 2
 119 0 l 1
 119 50 l 1
 207 50 l 2
 313 52 340 180 341 274 c 0
 340 360 324 478 205 490 c 2
 100 490 l 1
 100 0 l 1
 51 0 l 1
 51 539 l 1
EndSplineSet
Validated: 33
EndChar

StartChar: F
Encoding: 270 70 14
Width: 500
VWidth: -12564
Flags: W
HStem: 234 49<85 341> 490 49<107 376>
VStem: 58 49<1 234 283 490> 85 22<234 283>
LayerCount: 2
Fore
SplineSet
58 539 m 1xe0
 376 539 l 1
 376 490 l 1
 107 490 l 1
 107 1 l 1
 58 1 l 1
 58 539 l 1xe0
85 283 m 1xd0
 341 283 l 1
 341 234 l 1
 85 234 l 1
 85 283 l 1xd0
EndSplineSet
Validated: 5
EndChar

StartChar: V
Encoding: 271 86 15
Width: 500
VWidth: -12564
Flags: W
HStem: 234 49<85 341> 490 49<107 376>
VStem: 58 49<1 234 283 490> 85 22<234 283>
LayerCount: 2
Fore
SplineSet
58 539 m 1xe0
 376 539 l 1
 376 490 l 1
 107 490 l 1
 107 1 l 1
 58 1 l 1
 58 539 l 1xe0
85 283 m 1xd0
 341 283 l 1
 341 234 l 1
 85 234 l 1
 85 283 l 1xd0
EndSplineSet
Validated: 5
EndChar

StartChar: G
Encoding: 272 71 16
Width: 500
VWidth: -12559
Flags: W
HStem: -6 48<182.935 348.098> 209 48<264 378> 428 21G<361.882 422> 497 48<180.566 335.954>
VStem: 32 49<159.136 371.777> 378 49<71.0356 209>
LayerCount: 2
Fore
SplineSet
253 545 m 0
 317 545 360 520 386 495 c 0
 412 470 422 444 422 444 c 1
 376 428 l 1
 376 428 370 444 352 462 c 0
 334 480 304 497 253 497 c 0
 144 495 84 371 81 267 c 0
 81 137 163 42 257 42 c 0
 329 43 352 59 378 96 c 1
 378 209 l 1
 264 209 l 1
 264 257 l 1
 319 257 372 257 427 257 c 1
 427 89 l 1
 393 32 348 -5 257 -6 c 0
 130 -6 32 117 32 267 c 0
 33 387 97 544 253 545 c 0
EndSplineSet
Validated: 1
EndChar

StartChar: H
Encoding: 273 72 17
Width: 500
VWidth: -12564
Flags: W
HStem: 252 50<113 314> 519 20G<64 113 314 363>
VStem: 64 49<1 252 302 539> 314 49<1 252 302 539>
LayerCount: 2
Fore
SplineSet
64 539 m 1
 113 539 l 1
 113 302 l 1
 314 302 l 1
 314 539 l 1
 363 539 l 1
 363 1 l 1
 314 1 l 1
 314 252 l 1
 113 252 l 1
 113 1 l 1
 64 1 l 1
 64 539 l 1
EndSplineSet
Validated: 1
EndChar

StartChar: J
Encoding: 274 74 18
Width: 500
VWidth: -12564
Flags: W
HStem: -3 49<144.899 298.75> 493 50<249 329>
VStem: 57 49<87.3113 183> 329 49<79.0696 493>
LayerCount: 2
Fore
SplineSet
249 543 m 1
 378 543 l 1
 378 186 l 2
 378 124 368 77 342 44 c 0
 316 11 276 -3 229 -3 c 0
 179 -3 134 8 103 39 c 0
 72 70 57 118 57 183 c 1
 106 183 l 1
 106 126 119 93 138 74 c 0
 157 55 186 46 229 46 c 0
 267 46 289 54 304 74 c 0
 319 94 329 129 329 186 c 2
 329 493 l 1
 249 493 l 1
 249 543 l 1
EndSplineSet
Validated: 1
EndChar

StartChar: K
Encoding: 275 75 19
Width: 500
VWidth: -12554
Flags: W
HStem: 521 20G<38 87>
VStem: 38 49<2 204 278 541>
LayerCount: 2
Fore
SplineSet
329 551 m 1
 366 518 l 1
 184 312 l 1
 286 261 326 111 415 27 c 1
 387 -12 l 1
 298 55 270 218 148 272 c 1
 87 204 l 1
 87 2 l 1
 38 2 l 1
 38 541 l 1
 87 541 l 1
 87 278 l 1
 329 551 l 1
EndSplineSet
Validated: 1
EndChar

StartChar: L
Encoding: 276 76 20
Width: 500
VWidth: -12564
Flags: W
HStem: 1 49<117 356> 519 20G<68 117>
VStem: 68 49<50 539>
LayerCount: 2
Fore
SplineSet
68 539 m 1
 117 539 l 1
 117 50 l 1
 356 50 l 1
 356 1 l 1
 260 1 164 1 68 1 c 1
 68 539 l 1
EndSplineSet
Validated: 1
EndChar

StartChar: M
Encoding: 277 77 21
Width: 500
VWidth: -12564
Flags: W
HStem: 519 20G<61.8104 119.484 343.462 398.227>
LayerCount: 2
Fore
SplineSet
113 539 m 1
 231 175 l 1
 350 539 l 1
 397 539 l 1
 430 1 l 1
 381 1 l 1
 355 402 l 1
 231 35 l 1
 103 402 l 1
 80 1 l 1
 31 1 l 1
 63 539 l 1
 113 539 l 1
EndSplineSet
Validated: 1
EndChar

StartChar: W
Encoding: 278 87 22
Width: 500
VWidth: -12564
Flags: W
HStem: 0 21G<101.364 157.902 327.033 382.673> 519 20G<7 58.6574 426.326 478>
LayerCount: 2
Fore
SplineSet
430 539 m 1
 478 539 l 1
 379 0 l 1
 333 0 l 1
 242 305 l 1
 152 0 l 1
 105 0 l 1
 7 539 l 1
 55 539 l 1
 134 107 l 1
 244 477 l 1
 279 354 315 232 351 109 c 1
 430 539 l 1
EndSplineSet
Validated: 1
EndChar

StartChar: X
Encoding: 279 88 23
Width: 500
VWidth: -12564
Flags: W
HStem: -0 21G<40 104.842 346.596 411> 520 20G<38 99.6738 351.983 415>
LayerCount: 2
Fore
SplineSet
88 540 m 1
 224 307 l 1
 364 540 l 1
 415 540 l 1
 254 271 l 1
 411 -0 l 1
 358 -0 l 1
 228 228 l 1
 93 -0 l 1
 40 -0 l 1
 199 264 l 1
 38 540 l 1
 88 540 l 1
EndSplineSet
Validated: 1
EndChar

StartChar: C
Encoding: 280 67 24
Width: 500
VWidth: -12564
Flags: W
HStem: -3 46<160.501 315.609> 496 47<171.183 300.055>
VStem: 43 50<127.053 391.743>
LayerCount: 2
Fore
SplineSet
231 543 m 4
 344 543 396 436 396 436 c 5
 352 416 l 5
 352 416 311 496 231 496 c 4
 198 496 165 478 138 438 c 4
 111 398 93 336 93 257 c 4
 93 178 111 123 136 90 c 4
 161 57 193 43 230 43 c 4
 306 43 370 101 370 101 c 5
 405 68 l 5
 405 68 331 -3 230 -3 c 4
 179 -3 130 19 96 63 c 4
 62 107 43 171 43 257 c 4
 43 343 64 412 97 462 c 4
 130 512 178 543 231 543 c 4
EndSplineSet
Validated: 1
EndChar

StartChar: N
Encoding: 281 78 25
Width: 500
VWidth: -12564
Flags: W
HStem: 0 21G<51 100 328.213 389> 519 20G<51 113.738 340 389>
VStem: 51 49<0 445> 343 46<92 539>
LayerCount: 2
Fore
SplineSet
103 539 m 1
 343 92 l 1
 340 539 l 1
 389 539 l 1
 389 0 l 1
 339 0 l 1
 99 445 l 1
 100 0 l 1
 51 0 l 1
 51 539 l 1
 103 539 l 1
EndSplineSet
Validated: 1
EndChar

StartChar: exclam
Encoding: 283 33 27
Width: 500
VWidth: -10810
Flags: W
HStem: -8.56445 128.625<196.944 294.019> 519.1 20G<224.919 266.919>
VStem: 181.169 128.625<7.21019 104.286> 224.919 42<187.138 539.1>
LayerCount: 2
Fore
SplineSet
224.919 539.1 m 1xd0
 266.919 539.1 l 1
 266.919 187.138 l 1
 224.919 187.138 l 1
 224.919 539.1 l 1xd0
245.481 120.061 m 0
 280.728 120.061 309.794 90.9941 309.794 55.748 c 0
 309.794 20.502 280.728 -8.56445 245.481 -8.56445 c 0
 210.235 -8.56445 181.169 20.502 181.169 55.748 c 0xe0
 181.169 90.9941 210.235 120.061 245.481 120.061 c 0
EndSplineSet
Validated: 524289
EndChar

StartChar: quotedbl
Encoding: 284 34 28
Width: 500
VWidth: -10974
Flags: W
HStem: 382 156.625<169.588 211.588 288 330>
VStem: 169.588 42<382 538.625> 288 42<382 538.625>
LayerCount: 2
Fore
SplineSet
288 538.625 m 1
 330 538.625 l 1
 330 382 l 1
 288 382 l 1
 288 538.625 l 1
169.588 538.625 m 1
 211.588 538.625 l 1
 211.588 382 l 1
 169.588 382 l 1
 169.588 538.625 l 1
EndSplineSet
Validated: 524289
EndChar

StartChar: numbersign
Encoding: 285 35 29
Width: 500
VWidth: -10852
Flags: W
HStem: 111.703 42<48.5781 84.4531 133.891 216.578 266.453 301.891> 262.641 42<73.9531 109.828 159.266 241.953 291.828 327.266>
VStem: 48.5781 278.688
LayerCount: 2
Fore
SplineSet
136.516 421.016 m 5
 177.641 414.016 l 5
 159.266 304.641 l 5
 248.953 304.641 l 5
 268.641 421.016 l 5
 310.203 414.016 l 5
 291.828 304.641 l 5
 327.266 304.641 l 5
 327.266 262.641 l 5
 284.828 262.641 l 5
 266.453 153.703 l 5
 301.891 153.703 l 5
 301.891 111.703 l 5
 259.453 111.703 l 5
 240.641 1.89062 l 5
 199.516 8.89062 l 5
 216.578 111.703 l 5
 126.891 111.703 l 5
 108.516 1.89062 l 5
 66.9531 8.89062 l 5
 84.4531 111.703 l 5
 48.5781 111.703 l 5
 48.5781 153.703 l 5
 91.4531 153.703 l 5
 109.828 262.641 l 5
 73.9531 262.641 l 5
 73.9531 304.641 l 5
 116.828 304.641 l 5
 136.516 421.016 l 5
152.266 262.641 m 5
 133.891 153.703 l 5
 223.578 153.703 l 5
 241.953 262.641 l 5
 152.266 262.641 l 5
EndSplineSet
Validated: 524289
EndChar

StartChar: dollar
Encoding: 286 36 30
Width: 500
VWidth: -10813
Flags: W
HStem: -33.2998 98<240.056 282.056> 400.7 42<186.401 240.056 282.056 343.041>
VStem: 114.056 42.875<263.29 373.164> 240.056 42<-33.2998 -5.2998 36.7002 64.7002 358.7 400.7 442.7 470.7> 366.056 42<68.8809 167.691>
LayerCount: 2
Fore
SplineSet
240.056 470.7 m 5
 282.056 470.7 l 5
 282.056 442.7 l 5
 324.056 442.7 369.446 411.036 369.446 411.036 c 5
 352.056 372.7 l 5
 352.056 372.7 324.056 400.7 282.056 400.7 c 5
 282.056 358.7 l 5
 240.056 358.7 l 5
 240.056 400.7 l 5
 200.544 400.7 159.104 373.575 156.931 317.575 c 4
 154.771 261.616 198.343 239.044 268.056 232.7 c 4
 352.862 224.989 408.056 204.7 408.056 120.7 c 4
 408.056 50.7002 352.056 -5.2998 282.056 -5.2998 c 5
 282.056 -33.2998 l 5
 240.056 -33.2998 l 5
 240.056 -5.2998 l 5
 184.056 -5.2998 112.511 58.8213 112.511 58.8213 c 5
 142.056 92.7002 l 5
 142.056 92.7002 198.056 36.7002 240.056 36.7002 c 5
 240.056 64.7002 l 5
 282.056 64.7002 l 5
 282.056 36.7002 l 5
 324.056 36.7002 366.056 78.7002 366.056 120.7 c 4
 366.056 176.7 323.769 184.356 254.056 190.7 c 4
 169.249 198.411 114.056 232.7 114.056 316.7 c 4
 114.056 386.7 159.542 439.843 240.056 442.7 c 5
 240.056 470.7 l 5
EndSplineSet
Validated: 524321
EndChar

StartChar: percent
Encoding: 287 37 31
Width: 500
VWidth: -10858
Flags: W
HStem: 6.8252 42.875<287.99 357.915> 131.075 42.875<287.99 357.915> 246.575 42.875<142.74 212.665> 370.825 42.875<142.74 212.665>
VStem: 93.8057 43.3125<294.193 366.084> 218.056 43.3125<293.967 366.31> 239.056 43.3125<54.4427 126.334> 363.306 43.3125<54.2166 126.56>
LayerCount: 2
Fore
SplineSet
177.806 413.7 m 4xfd
 223.47 413.7 261.368 375.802 261.368 330.138 c 4
 261.368 284.474 223.47 246.575 177.806 246.575 c 4
 132.142 246.575 93.8057 284.474 93.8057 330.138 c 4
 93.8057 375.802 132.142 413.7 177.806 413.7 c 4xfd
343.181 407.575 m 5
 378.181 383.95 l 5
 374.681 378.7 l 5
 129.681 14.7002 l 5
 112.181 26.5127 l 5
 94.6807 38.3252 l 5
 339.681 402.325 l 5
 343.181 407.575 l 5
177.806 370.825 m 4
 154.851 370.825 137.118 353.106 137.118 330.138 c 4
 137.118 307.183 154.851 289.45 177.806 289.45 c 4
 200.761 289.45 218.056 307.183 218.056 330.138 c 4
 218.056 353.106 200.761 370.825 177.806 370.825 c 4
323.056 173.95 m 4
 368.72 173.95 406.618 136.052 406.618 90.3877 c 4
 406.618 44.7236 368.72 6.8252 323.056 6.8252 c 4
 277.392 6.8252 239.056 44.7236 239.056 90.3877 c 4xfb
 239.056 136.052 277.392 173.95 323.056 173.95 c 4
323.056 131.075 m 4
 300.101 131.075 282.368 113.356 282.368 90.3877 c 4
 282.368 67.4326 300.101 49.7002 323.056 49.7002 c 4
 346.011 49.7002 363.306 67.4326 363.306 90.3877 c 4
 363.306 113.356 346.011 131.075 323.056 131.075 c 4
EndSplineSet
Validated: 524289
EndChar

StartChar: ampersand
Encoding: 288 38 32
Width: 500
VWidth: -10810
Flags: W
HStem: 209.7 42<303.125 343.812 383.355 416>
VStem: 343.812 42<123.432 209.7>
LayerCount: 2
Fore
SplineSet
218.688 504.138 m 5
 263.449 503.112 299.447 477.259 336.375 450.325 c 5
 309.25 418.825 l 5
 280.32 441.233 256.148 460.47 220.205 463.368 c 4
 176.428 466.909 145.707 424.595 140.621 381.528 c 4
 131.939 307.892 269.998 179.267 325 122.2 c 5
 333.477 148.45 338.904 177.161 343.812 209.7 c 5
 303.125 209.7 l 5
 303.125 251.7 l 5
 416 251.7 l 5
 416 209.7 l 5
 385.812 209.7 l 5
 381.273 167.974 372.305 126.425 357.375 88.0752 c 5
 391.514 51.8311 418.625 22.8877 418.625 22.8877 c 5
 388 -5.9873 l 5
 388 -5.9873 365.893 17.0088 336.812 47.8252 c 5
 286.938 -22.5029 182.211 -23.624 120.25 56.1377 c 4
 62.3086 130.704 85.4004 197.354 137.312 267.888 c 5
 111.637 299.853 95.6133 341.005 99.25 387.325 c 4
 103.857 446.087 153.637 505.628 218.688 504.138 c 5
164.438 235.95 m 5
 121.986 183.587 104.486 128.325 149.562 78.0127 c 4
 206.984 13.9189 276.602 20.5361 306.625 80.2002 c 5
 261.316 128.503 212.453 181.468 164.438 235.95 c 5
EndSplineSet
Validated: 524321
EndChar

StartChar: quotesingle
Encoding: 289 39 33
Width: 500
VWidth: -10974
Flags: W
HStem: 382.476 156.625<229 271>
VStem: 229 42<382.476 539.101>
LayerCount: 2
Fore
SplineSet
229 539.101 m 1
 271 539.101 l 1
 271 382.476 l 1
 229 382.476 l 1
 229 539.101 l 1
EndSplineSet
Validated: 524289
EndChar

StartChar: parenleft
Encoding: 290 40 34
Width: 500
VWidth: -10748
Flags: W
VStem: 159 42<121.127 399.697>
LayerCount: 2
Fore
SplineSet
265.75 584.2 m 1
 293.75 552.7 l 1
 233.99 478.735 207.18 368.116 201 265.7 c 0
 201 74.8955 293.312 -24.7998 293.312 -24.7998 c 1
 262.688 -53.2373 l 1
 262.688 -53.2373 159 61.0049 159 265.7 c 0
 159.875 365.437 190.992 498.409 265.75 584.2 c 1
EndSplineSet
Validated: 524289
EndChar

StartChar: parenright
Encoding: 291 41 35
Width: 500
VWidth: -10748
Flags: W
VStem: 277 42<121.127 399.697>
LayerCount: 2
Fore
SplineSet
212.25 584.2 m 1
 184.25 552.7 l 1
 244.01 478.735 270.82 368.116 277 265.7 c 0
 277 74.8955 184.688 -24.7998 184.688 -24.7998 c 1
 215.312 -53.2373 l 1
 215.312 -53.2373 319 61.0049 319 265.7 c 0
 318.125 365.437 287.008 498.409 212.25 584.2 c 1
EndSplineSet
Validated: 524297
EndChar

StartChar: asterisk
Encoding: 292 42 36
Width: 500
VWidth: -10897
Flags: W
HStem: 268.159 318.842
VStem: 227.354 43.8047<447.562 586.933>
LayerCount: 2
Fore
SplineSet
270.297 587.001 m 1
 270.283 586.987 l 1
 270.188 586.563 l 1
 271.158 447.562 l 1
 404.062 489.685 l 1
 417.27 449.954 l 1
 416.736 449.626 l 1
 284.379 406.026 l 1
 366 292.7 l 1
 365.904 292.276 l 1
 332.039 268.159 l 1
 331.943 267.735 l 1
 249.16 379.995 l 1
 166.623 267.831 l 1
 132.58 292.413 l 1
 132.676 292.837 l 1
 214.037 405.739 l 1
 81.543 449.571 l 1
 94.5449 489.63 l 1
 227.354 447.069 l 1
 228.379 586.933 l 1
 270.297 587.001 l 1
EndSplineSet
Validated: 524289
EndChar

StartChar: plus
Encoding: 293 43 37
Width: 500
VWidth: -10878
Flags: W
HStem: 197.7 42<75 229 271 425>
VStem: 229 42<29.7002 197.7 239.7 393.7>
LayerCount: 2
Fore
SplineSet
229 393.7 m 5
 271 393.7 l 5
 271 239.7 l 5
 425 239.7 l 5
 425 197.7 l 5
 271 197.7 l 5
 271 29.7002 l 5
 229 29.7002 l 5
 229 197.7 l 5
 75 197.7 l 5
 75 239.7 l 5
 229 239.7 l 5
 229 393.7 l 5
EndSplineSet
Validated: 524289
EndChar

StartChar: comma
Encoding: 294 44 38
Width: 500
VWidth: -10964
Flags: W
HStem: -118.103 177.557
VStem: 218.5 98.875
LayerCount: 2
Fore
SplineSet
244.312 59.4541 m 5
 317.375 41.9541 l 5
 254.594 -118.103 l 5
 218.5 -110.296 l 5
 244.312 59.4541 l 5
EndSplineSet
Validated: 524289
EndChar

StartChar: hyphen
Encoding: 295 45 39
Width: 500
VWidth: -11027
Flags: W
HStem: 203.7 42<81.875 417>
VStem: 81.875 335.125<203.7 245.7>
LayerCount: 2
Fore
SplineSet
81.875 245.7 m 5
 417 245.7 l 5
 417 203.7 l 5
 81.875 203.7 l 5
 81.875 245.7 l 5
EndSplineSet
Validated: 524289
EndChar

StartChar: period
Encoding: 296 46 40
Width: 500
VWidth: -10987
Flags: W
HStem: -6.32617 128.652<190.128 287.219>
VStem: 174.348 128.652<9.45434 106.546>
LayerCount: 2
Fore
SplineSet
238.674 122.326 m 4
 273.92 122.326 303 93.2461 303 58 c 4
 303 22.7539 273.92 -6.32617 238.674 -6.32617 c 4
 203.428 -6.32617 174.348 22.7539 174.348 58 c 4
 174.348 93.2461 203.428 122.326 238.674 122.326 c 4
EndSplineSet
Validated: 524289
EndChar

StartChar: slash
Encoding: 297 47 41
Width: 500
VWidth: -10774
Flags: W
VStem: 110 280
LayerCount: 2
Fore
SplineSet
348 563 m 1
 390 549 l 1
 152 -25 l 1
 110 -11 l 1
 348 563 l 1
EndSplineSet
Validated: 1
EndChar

StartChar: zero
Encoding: 298 48 42
Width: 500
VWidth: 0
Flags: W
HStem: -1 43<129.079 281.077> 186 57<180.866 231.134> 386 42<134.778 277.335>
VStem: -0 49<124.925 299.633> 180 52<186.284 242.733> 363 49<128.913 299.032>
CounterMasks: 1 1c
LayerCount: 2
Fore
SplineSet
206 428 m 0
 322 428 414 327 412 215 c 0
 409 79 322 -1 206 -1 c 0
 90 -1 0 81 -0 215 c 0
 -0 327 90 428 206 428 c 0
206 386 m 0
 121 386 49 307 49 215 c 0
 49 111 121 42 206 42 c 0
 291 42 363 116 363 215 c 0
 363 307 291 386 206 386 c 0
206 243 m 0
 222 243 232 228 232 215 c 0
 232 202 222 186 206 186 c 0
 190 186 180 202 180 215 c 0
 180 228 190 243 206 243 c 0
EndSplineSet
Validated: 33
EndChar

StartChar: one
Encoding: 299 49 43
Width: 500
VWidth: 0
Flags: W
HStem: 0 21G<230 276> 403 20G<204.017 276> 403 20G<204.017 276>
VStem: 230 46<0 366>
LayerCount: 2
Fore
SplineSet
226 423 m 5xd0
 276 423 l 5
 276 0 l 5
 230 0 l 5
 230 366 l 5
 125 268 l 5
 93 302 l 5
 226 423 l 5xd0
EndSplineSet
Validated: 1
EndChar

StartChar: two
Encoding: 300 50 44
Width: 500
VWidth: 0
Flags: W
HStem: 0 44<109 323.987> 387 41<135.973 263.856>
VStem: 53 47<244.133 354.891> 299 43<243.216 355.142>
LayerCount: 2
Fore
SplineSet
197 428 m 4
 279 428 342 383 342 294 c 4
 342 168 118 92 109 44 c 5
 291 43 l 6
 306 43 324 56 324 56 c 5
 350 21 l 5
 350 21 329 0 297 0 c 6
 69 0 l 5
 42 -0 l 5
 42 146 299 179 299 297 c 4
 299 347 263 388 197 387 c 4
 149 386 103 357 100 296 c 4
 100 270 120 236 149 223 c 5
 136 183 l 5
 87 203 53 239 53 296 c 4
 54 373 113 428 197 428 c 4
EndSplineSet
Validated: 33
EndChar

StartChar: three
Encoding: 301 51 45
Width: 500
VWidth: 0
Flags: W
HStem: 378 47<91 279>
VStem: 326 47<35.3492 173.173>
LayerCount: 2
Fore
SplineSet
91 425 m 5
 335 425 l 5
 352 385 l 5
 226 259 l 6
 240 257 255 255 271 249 c 4
 296 240 321 226 341 202 c 4
 361 178 373 145 373 104 c 4
 373 20 314 -40 243 -52 c 4
 172 -64 90 -29 44 60 c 5
 86 81 l 5
 124 7 183 -15 234 -6 c 4
 285 3 326 42 326 104 c 4
 326 136 318 157 305 173 c 4
 292 189 273 199 254 206 c 4
 216 220 177 218 177 218 c 5
 159 258 l 5
 279 378 l 5
 91 378 l 5
 91 425 l 5
EndSplineSet
Validated: 33
EndChar

StartChar: four
Encoding: 302 52 46
Width: 500
VWidth: 0
Flags: W
HStem: 28 47<90 279 326 390> 405 20G<260.222 326> 405 20G<260.222 326>
VStem: 279 47<-111 28 75 353>
LayerCount: 2
Fore
SplineSet
274 425 m 1xd0
 326 425 l 1
 326 75 l 1
 390 75 l 1
 390 28 l 1
 326 28 l 1
 326 -111 l 1
 279 -111 l 1
 279 28 l 1
 45 28 l 1
 26 65 l 1
 274 425 l 1xd0
279 353 m 1
 90 75 l 1
 279 75 l 1
 279 353 l 1
EndSplineSet
Validated: 1
EndChar

StartChar: five
Encoding: 303 53 47
Width: 500
VWidth: 0
Flags: W
HStem: -104 47<126.919 273.004> 224 46<115.782 292.323> 377 47<139 330>
VStem: 341 47<14.7031 174.296>
LayerCount: 2
Fore
SplineSet
100 424 m 5
 330 424 l 5
 330 377 l 5
 139 377 l 5
 114 251 l 5
 141 260 179 270 223 270 c 4
 326 269 387 197 388 87 c 4
 388 -12 319 -104 213 -104 c 4
 113 -104 48 -36 48 -36 c 5
 82 -4 l 5
 82 -4 134 -57 213 -57 c 4
 282 -56 341 24 341 87 c 4
 340 152 313 223 223 224 c 4
 154 224 96 193 96 193 c 5
 62 218 l 5
 100 424 l 5
EndSplineSet
Validated: 1
EndChar

StartChar: six
Encoding: 304 54 48
Width: 500
VWidth: 0
Flags: W
HStem: 1 47<144.54 256.461> 324 47<162.627 277.58>
VStem: 309 47<108.339 290.288>
LayerCount: 2
Fore
SplineSet
244 579 m 1
 267 538 l 1
 267 538 152 473 109 309 c 1
 131 347 177 371 226 371 c 0
 287 371 356 316 356 204 c 0
 356 74 276 1 200 1 c 0
 77 1 36 141 51 256 c 0
 80 484 244 579 244 579 c 1
226 324 m 0
 185 324 164 307 152 291 c 0
 140 275 137 259 137 259 c 1
 100 266 l 1
 81 190 107 48 200 48 c 0
 245 48 309 92 309 204 c 0
 309 298 261 324 226 324 c 0
EndSplineSet
Validated: 33
EndChar

StartChar: seven
Encoding: 305 55 49
Width: 500
VWidth: 0
Flags: W
HStem: 381 43<79.8167 324>
LayerCount: 2
Fore
SplineSet
82 424 m 2
 394 424 l 1
 154 -87 l 1
 111 -67 l 1
 324 381 l 1
 96 381 l 2
 89 381 80 374 80 374 c 1
 44 414 l 1
 44 414 59 424 82 424 c 2
EndSplineSet
Validated: 1
EndChar

StartChar: eight
Encoding: 306 56 50
Width: 500
VWidth: 0
Flags: W
HStem: -4 41<146.384 265.226> 508 38<151.725 268.836>
VStem: 60 46<71.6177 196.899> 73 47<347.972 481.706> 293 47<359.826 488.184> 302 46<74.2651 185.843>
LayerCount: 2
Fore
SplineSet
212 546 m 4xd0
 290 545 341 507 340 422 c 4xd8
 340 356 306 304 245 275 c 5
 254 271 345 230 348 134 c 4
 350 58 286 -4 219 -4 c 4
 117 -4 59 58 60 135 c 4xe4
 62 186 95 247 148 277 c 5
 137 283 73 324 73 419 c 4
 74 494 122 546 212 546 c 4xd0
213 508 m 4
 158 507 121 480 120 419 c 4
 120 339 189 305 189 305 c 5
 160 284 l 6
 171 290 183 296 194 302 c 4
 246 328 293 364 293 424 c 4
 295 471 273 506 213 508 c 4
237 271 m 6
 230 267 222 264 215 260 c 4
 164 235 108 204 106 134 c 4
 105 82 142 37 222 37 c 4
 255 37 304 84 302 133 c 4xe4
 300 201 203 248 203 248 c 5
 237 271 l 6
EndSplineSet
Validated: 33
EndChar

StartChar: nine
Encoding: 307 57 51
Width: 500
VWidth: 0
Flags: W
HStem: 55 47<140.097 255.378> 378 47<160.539 281.607>
VStem: 61 47<136.727 317.661>
LayerCount: 2
Fore
SplineSet
217 425 m 4
 268 425 313 401 340 356 c 4
 367 311 377 249 367 170 c 4
 338 -58 173 -152 173 -152 c 5
 150 -111 l 5
 150 -111 266 -46 308 118 c 5
 306 114 306 111 303 107 c 4
 284 81 247 55 192 55 c 4
 131 55 61 110 61 222 c 4
 61 352 141 425 217 425 c 4
217 378 m 4
 172 378 108 334 108 222 c 4
 108 128 157 102 192 102 c 4
 233 102 253 119 265 135 c 4
 277 151 281 167 281 167 c 5
 317 160 l 6
 318 165 319 170 320 175 c 4
 329 247 320 300 301 332 c 4
 282 364 254 378 217 378 c 4
EndSplineSet
Validated: 33
EndChar

StartChar: colon
Encoding: 308 58 52
Width: 500
VWidth: -10873
Flags: W
HStem: 23.1289 128.625<195.389 292.465> 268.129 128.625<195.389 292.465>
VStem: 179.614 128.625<38.9035 135.979 283.904 380.979>
LayerCount: 2
Fore
SplineSet
243.927 396.754 m 4
 279.173 396.754 308.239 367.688 308.239 332.441 c 4
 308.239 297.195 279.173 268.129 243.927 268.129 c 4
 208.681 268.129 179.614 297.195 179.614 332.441 c 4
 179.614 367.688 208.681 396.754 243.927 396.754 c 4
243.927 151.754 m 4
 279.173 151.754 308.239 122.688 308.239 87.4414 c 4
 308.239 52.1953 279.173 23.1289 243.927 23.1289 c 4
 208.681 23.1289 179.614 52.1953 179.614 87.4414 c 4
 179.614 122.688 208.681 151.754 243.927 151.754 c 4
EndSplineSet
Validated: 524289
EndChar

StartChar: semicolon
Encoding: 309 59 53
Width: 500
VWidth: -10828
Flags: W
HStem: 268.128 128.625<195.39 292.466>
VStem: 179.615 128.625<283.903 380.978>
LayerCount: 2
Fore
SplineSet
243.928 396.753 m 0
 279.174 396.753 308.24 367.687 308.24 332.44 c 0
 308.24 297.194 279.174 268.128 243.928 268.128 c 0
 208.682 268.128 179.615 297.194 179.615 332.44 c 0
 179.615 367.687 208.682 396.753 243.928 396.753 c 0
214.615 104.065 m 1
 287.678 86.5654 l 1
 224.678 -73.5596 l 1
 188.803 -65.6846 l 1
 214.615 104.065 l 1
EndSplineSet
Validated: 524289
EndChar

StartChar: less
Encoding: 310 60 54
Width: 500
VWidth: -10871
Flags: W
VStem: 87.5312 305.375
LayerCount: 2
Fore
SplineSet
371.906 402.85 m 5
 392.906 366.1 l 5
 140.469 219.975 l 5
 392.906 73.8496 l 5
 371.906 37.0996 l 5
 87.5312 201.6 l 5
 87.5312 238.35 l 5
 371.906 402.85 l 5
EndSplineSet
Validated: 524289
EndChar

StartChar: equal
Encoding: 311 61 55
Width: 500
VWidth: -10949
Flags: W
HStem: 123.42 42<74.7607 424.761> 291.42 42<74.7607 424.761>
LayerCount: 2
Fore
SplineSet
74.7607 333.42 m 5
 424.761 333.42 l 5
 424.761 291.42 l 5
 74.7607 291.42 l 5
 74.7607 333.42 l 5
74.7607 165.42 m 5
 424.761 165.42 l 5
 424.761 123.42 l 5
 74.7607 123.42 l 5
 74.7607 165.42 l 5
EndSplineSet
Validated: 524289
EndChar

StartChar: greater
Encoding: 312 62 56
Width: 500
VWidth: -10871
Flags: W
LayerCount: 2
Fore
SplineSet
108.531 402.85 m 5
 87.5312 366.1 l 5
 339.969 219.975 l 5
 87.5312 73.8496 l 5
 108.531 37.0996 l 5
 392.906 201.6 l 5
 392.906 238.35 l 5
 108.531 402.85 l 5
EndSplineSet
Validated: 524297
EndChar

StartChar: question
Encoding: 313 63 57
Width: 500
VWidth: -10801
Flags: W
HStem: -3.9873 128.625<185.069 282.144> 502.388 42<190.222 310.079>
VStem: 130.356 42<447.7 483.692> 169.294 128.625<11.7873 108.863> 200.356 42<203.138 245.234>
LayerCount: 2
Fore
SplineSet
251.106 544.388 m 0xe8
 329.966 543.376 395.755 482.427 381.919 391.7 c 0
 369.505 320.634 240.237 256.772 242.356 203.138 c 1
 200.356 203.138 l 1
 201.86 287.302 317.032 319.759 340.794 399.575 c 0
 349.831 452.034 315.638 499.845 251.106 502.388 c 0
 223.64 502.06 178.577 490.452 172.356 447.7 c 1
 130.356 445.075 l 1
 132.435 512.3 187.163 540.04 251.106 544.388 c 0xe8
233.606 124.638 m 4
 268.853 124.638 297.919 95.5713 297.919 60.3252 c 4
 297.919 25.0791 268.853 -3.9873 233.606 -3.9873 c 4
 198.36 -3.9873 169.294 25.0791 169.294 60.3252 c 4xd0
 169.294 95.5713 198.36 124.638 233.606 124.638 c 4
EndSplineSet
Validated: 524321
EndChar

StartChar: at
Encoding: 314 64 58
Width: 500
VWidth: -10862
Flags: W
VStem: 294.688 42<142.383 244.12>
LayerCount: 2
Fore
SplineSet
254.875 411.883 m 4
 320.09 415.943 398.443 397.145 429 323.508 c 4
 458.613 252.141 467.445 63.4004 359 37.3828 c 4
 342.635 33.459 327.664 46.1191 317 57.5078 c 5
 287.291 20.3066 243.377 7.25 206.75 21.6328 c 4
 159.691 40.1035 131.596 100.137 155.562 175.195 c 4
 178.271 246.289 221.475 275.273 258.375 280.633 c 4
 281.057 283.928 308.482 277.611 336.688 266.25 c 5
 336.688 142.383 l 5
 294.688 142.383 l 5
 294.688 237.758 l 5
 244.156 262.873 213.764 213.189 195.812 162.07 c 4
 176.303 100.998 195.717 67.0918 220.203 57.4805 c 4
 245.113 47.6914 282.889 61.9922 298.734 113.125 c 5
 335.238 106.207 l 6
 336.113 95.2012 354.543 76.6484 362.062 79.3828 c 4
 423.818 101.818 414.986 243.432 398.539 300.334 c 4
 383.637 351.877 313.486 380.15 257.5 376.062 c 4
 177.67 370.484 132.648 319.748 110.062 256.57 c 4
 87.4766 193.393 91.2227 111.266 118.375 41.3203 c 5
 79 26.4453 l 5
 48.4023 105.25 43.3984 195.498 70.25 270.57 c 4
 97.1016 345.643 159.705 405.225 254.875 411.883 c 4
EndSplineSet
Validated: 524321
EndChar

StartChar: bracketleft
Encoding: 315 91 59
Width: 500
VWidth: -10748
Flags: W
HStem: -58 42<236 320> 544 42<236 320>
VStem: 194 126<-58 -16 544 586> 194 42<-16 544>
LayerCount: 2
Fore
SplineSet
194 -58 m 1xe0
 194 586 l 1
 320 586 l 1
 320 544 l 1xe0
 236 544 l 1
 236 -16 l 1xd0
 320 -16 l 1
 320 -58 l 1
 194 -58 l 1xe0
EndSplineSet
Validated: 1
EndChar

StartChar: backslash
Encoding: 316 92 60
Width: 500
VWidth: -10774
Flags: W
LayerCount: 2
Fore
SplineSet
152 558 m 5
 110 544 l 5
 348 -30 l 5
 390 -16 l 5
 152 558 l 5
EndSplineSet
Validated: 9
EndChar

StartChar: bracketright
Encoding: 317 93 61
Width: 500
VWidth: -10748
Flags: W
VStem: 180 126
LayerCount: 2
Fore
SplineSet
306 -56.9004 m 5
 306 587.1 l 5
 180 587.1 l 5
 180 545.1 l 5
 264 545.1 l 5
 264 -14.9004 l 5
 180 -14.9004 l 5
 180 -56.9004 l 5
 306 -56.9004 l 5
EndSplineSet
Validated: 524297
EndChar

StartChar: asciicircum
Encoding: 318 94 62
Width: 500
VWidth: -10956
Flags: W
HStem: 398 188
VStem: 129 263
LayerCount: 2
Fore
SplineSet
257.5 586 m 1
 392 425 l 1
 357 398 l 1
 259 521 l 1
 163 397 l 1
 129 424 l 1
 257.5 586 l 1
EndSplineSet
Validated: 524289
EndChar

StartChar: underscore
Encoding: 319 95 63
Width: 500
VWidth: -11027
Flags: W
HStem: -42 42<44.4375 455.688>
LayerCount: 2
Fore
SplineSet
44.4375 0 m 1
 455.688 0 l 1
 455.688 -42 l 1
 44.4375 -42 l 1
 44.4375 0 l 1
EndSplineSet
Validated: 524289
EndChar

StartChar: grave
Encoding: 320 96 64
Width: 500
VWidth: -12597
Flags: W
HStem: 539.1 105.4<238 250>
VStem: 185 94
LayerCount: 2
Fore
SplineSet
185 644.5 m 1
 250 644.5 l 1
 279 539.5 l 1
 238 539.1 l 1
 185 644.5 l 1
EndSplineSet
Validated: 524289
EndChar

StartChar: a
Encoding: 321 97 65
Width: 500
VWidth: -12668
Flags: W
HStem: -6 51<154.227 311.649> 380 48<156.864 305.956>
VStem: 24 49<127.349 295.029> 375 53<108.02 311.079 352.5 424>
LayerCount: 2
Fore
SplineSet
232 428 m 0
 292 428 347 398 375 352.5 c 1
 375 424 l 1
 428 424 l 1
 428 86 l 2
 428 35 444 0 444 0 c 1
 394 0 l 1
 394 0 380 16 376 64 c 1
 342 21 293 -6 232 -6 c 0
 117 -6 24 91 24 211 c 0
 24 331 117 428 232 428 c 0
234.5 380 m 0
 146.5 380 73 303 73 211 c 0
 73 119 144 45 232 45 c 0
 313 45 380 103.5 380 211 c 0
 380 309.5 312.5 380 234.5 380 c 0
EndSplineSet
Validated: 524289
EndChar

StartChar: b
Encoding: 322 98 66
Width: 500
VWidth: -12592
Flags: W
HStem: -9 46<185.877 326.107> 390 45<175.761 314.508> 567 20G<87 136>
VStem: 87 49<1 28 33.667 333 391.5 587> 380 49<103.662 315.373>
LayerCount: 2
Fore
SplineSet
87 587 m 1
 136 587 l 1
 136 391.5 l 1
 157.333 417 201 435 256 435 c 0
 358 433 429 339 429 212 c 0
 429 113 393 -9 269 -9 c 0
 194 -9 151 16 136 28 c 2
 136 1 l 1
 87 1 l 1
 87 587 l 1
256 390 m 0
 218 390 162 373 137 332 c 1
 136 333 l 1
 136 33.667 l 1
 178.667 65 l 1
 178.667 65 202 37 269 37 c 0
 346.833 37 380 134 380 207 c 0
 380 288 350 382 256 390 c 0
EndSplineSet
Validated: 524289
EndChar

StartChar: c
Encoding: 323 99 67
Width: 500
VWidth: -12663
Flags: W
HStem: 1 46<160.374 360.736> 392 47<163.689 341.191>
VStem: 47 49<120.293 313.888>
LayerCount: 2
Fore
SplineSet
230 439 m 4
 338 439 375 403.856 375 403.856 c 5
 354 362.856 l 5
 354 362.856 311 392 230 392 c 4
 163 392 96 331 96 210 c 4
 97 142 130 50 229 47 c 4
 305 47 371 72.8564 371 72.8564 c 5
 391 31.8564 l 5
 391 31.8564 325 1 229 1 c 4
 109 -1 48 99 47 210 c 4
 47 348 131 439 230 439 c 4
EndSplineSet
Validated: 524321
EndChar

StartChar: d
Encoding: 324 100 68
Width: 500
VWidth: -12592
Flags: W
HStem: 0 40<166.948 291.029> 387 44<159.727 295.055> 566 20G<357 406>
VStem: 43 46<124.883 308.929> 357 49<0 62 366 586>
LayerCount: 2
Fore
SplineSet
357 586 m 5
 406 586 l 5
 406 401 405 184 406 0 c 5
 390 0 373 0 357 0 c 5
 357 62 l 5
 332 17 281 -6 228 -6 c 4
 124 -6 43 93 43 218 c 4
 43 343 124 431 228 431 c 4
 281 431 332 412 357 366 c 5
 357 586 l 5
228 387 m 4
 154 387 89 319 89 218 c 4
 89 117 154 40 228 40 c 4
 302 40 366 113 366 214 c 4
 366 315 302 387 228 387 c 4
EndSplineSet
Validated: 33
EndChar

StartChar: e
Encoding: 325 101 69
Width: 500
VWidth: -12668
Flags: W
HStem: -4 47<173.006 361.042> 199 49<102 368> 385 44<170.658 310.176>
VStem: 48 49<120.367 199 248 302.083>
LayerCount: 2
Fore
SplineSet
246 429 m 0
 341 425 415 377 416 199 c 1
 97 199 l 1
 98 124 149 48 248 43 c 0
 336 43 383.333 76.75 383.333 76.75 c 1
 408.333 34.25 l 1
 408.333 34.25 362 -4 245 -4 c 0
 136 -2 54 75 48 200 c 0
 49 325 107 429 246 429 c 0
242 385 m 0
 171 385 116 333 102 248 c 1
 368 248 l 1
 363 322 324 381 242 385 c 0
EndSplineSet
Validated: 524289
EndChar

StartChar: f
Encoding: 326 102 70
Width: 500
VWidth: -12587
Flags: W
HStem: 0 41<167.5 216.5 265.5 313.5> 378 46<167.5 216.5 266.5 352.5> 549.5 44.5<311.136 409>
VStem: 216.5 49<41 378 424 496.995>
LayerCount: 2
Fore
SplineSet
307.5 584 m 0
 330.5 595 377 594 409 594 c 1
 409 549.5 l 1
 409 549.5 360.5 556 328.5 540 c 0
 299.5 526 271.5 483 266.5 424 c 1
 352.5 424 l 1
 352.5 378 l 1
 265.5 378 l 1
 265.5 41 l 1
 313.5 41 l 1
 313.5 0 l 1
 167.5 0 l 1
 167.5 41 l 1
 216.5 41 l 1
 216.5 378 l 1
 167.5 378 l 1
 167.5 424 l 1
 217.5 424 l 1
 223.5 501 266.5 564 307.5 584 c 0
EndSplineSet
Validated: 524321
EndChar

StartChar: g
Encoding: 327 103 71
Width: 500
VWidth: -12587
Flags: W
HStem: -176 45<128.339 294.164> 0 46<128 319.842> 67 46<150.118 270.967> 379 49<150.963 271.348> 418.8 49<375.296 439>
VStem: 51 50<165.584 325.239> 321 49<167.05 326.508> 331 50<-98.7498 -12.6907>
LayerCount: 2
Fore
SplineSet
439 467.8 m 1xed
 439 418.8 l 1
 380 418.8 344 369 336 360 c 0
 358 328 370 289 370 246 c 0xee
 370 148 301 67 211 67 c 0
 185 67 164 72 140 82 c 1
 128 46 l 1
 272 46 l 2
 329 46 379 22 381 -48 c 0
 380 -145 289 -175 192 -176 c 0
 142 -175 80 -148 54 -95 c 1
 101 -80 l 1
 121 -113 152 -129 192 -131 c 0
 271 -132 331 -106 331 -48 c 0
 331 -10 286 2 242 0 c 2
 95 0 l 1
 71 29 l 1
 99 115 l 1
 69 148 51 196 51 246 c 0
 51 344 121 428 211 428 c 0xf5
 246 428 278 416 304 395 c 1
 321 411 364 467.8 439 467.8 c 1xed
211 379 m 0xf6
 152 379 101 322 101 246 c 0
 101 170 152 113 211 113 c 0
 270 113 321 170 321 246 c 0
 321 322 270 379 211 379 c 0xf6
EndSplineSet
Validated: 524321
EndChar

StartChar: h
Encoding: 328 104 72
Width: 500
VWidth: -12597
Flags: W
HStem: -1 21G<78 127 331 381> 391 49<176.303 295.882>
VStem: 78 49<0 334.428 388 584> 331 50<-1 355.541>
LayerCount: 2
Fore
SplineSet
81 584 m 5
 130 584 l 5
 130 388 l 5
 153 415 184 440 228 440 c 4
 322 440 384 369 384 296 c 6
 384 -1 l 5
 334 -1 l 5
 334 296 l 6
 334 342 299 391 228 391 c 4
 199 391 175 369 157 342 c 4
 139 315 130 288 130 288 c 5
 130 0 l 5
 81 0 l 5
 81 584 l 5
EndSplineSet
Validated: 1
EndChar

StartChar: i
Encoding: 329 105 73
Width: 500
VWidth: -12597
Flags: W
HStem: 0 43<144.75 226 277 351.75> 382.1 44<139.167 226> 475.719 128.625<188.921 285.997>
VStem: 173.146 128.625<491.493 588.569> 226 51<42.834 382.1>
LayerCount: 2
Fore
SplineSet
237.459 604.344 m 0xf0
 272.705 604.344 301.771 575.277 301.771 540.031 c 0
 301.771 504.785 272.705 475.719 237.459 475.719 c 0
 202.213 475.719 173.146 504.785 173.146 540.031 c 0
 173.146 575.277 202.213 604.344 237.459 604.344 c 0xf0
139.167 426.1 m 1
 277 426.1 l 1
 277 42.834 l 1
 351.75 43 l 1
 351.75 0 l 1
 144.75 0 l 1
 144.75 43 l 1
 226 42.834 l 1
 226 382.1 l 1xe8
 139.167 382.1 l 1
 139.167 426.1 l 1
EndSplineSet
Validated: 524289
EndChar

StartChar: j
Encoding: 330 106 74
Width: 500
VWidth: -12520
Flags: W
HStem: -160 50<90 194.357> 376.529 48<124.5 256.668> 477.75 128.625<215.868 312.944>
VStem: 200.094 128.625<493.525 590.6> 256.668 54.332<-59.4775 376.529>
LayerCount: 2
Fore
SplineSet
264.406 606.375 m 0xf0
 299.652 606.375 328.719 577.309 328.719 542.062 c 0
 328.719 506.816 299.652 477.75 264.406 477.75 c 0
 229.16 477.75 200.094 506.816 200.094 542.062 c 0
 200.094 577.309 229.16 606.375 264.406 606.375 c 0xf0
124.5 424.529 m 1
 311 424.529 l 1
 311 2 l 2
 311 -118 189 -153 90 -160 c 1
 90 -110 l 1
 168 -106 256.668 -85.3672 256.668 2 c 2
 256.668 376.529 l 1xe8
 124.5 376.529 l 1
 124.5 424.529 l 1
EndSplineSet
Validated: 524289
EndChar

StartChar: k
Encoding: 331 107 75
Width: 500
VWidth: -12587
Flags: W
HStem: 0 21G<63 114> 567 20G<63 114>
VStem: 63 51<0 192 262 587>
LayerCount: 2
Fore
SplineSet
63 587 m 1
 114 587 l 1
 114 262 l 1
 281 436 l 1
 316 402 l 1
 185 267 l 1
 230 230 257 181 281 137 c 0
 308 87 332 46 365 30 c 1
 343 -15 l 1
 291 10 265 63 238 113 c 0
 213 158 188 202 150 231 c 1
 114 192 l 1
 114 0 l 1
 63 0 l 1
 63 587 l 1
EndSplineSet
Validated: 1
EndChar

StartChar: l
Encoding: 332 108 76
Width: 500
VWidth: -12592
Flags: W
HStem: -4 47<235.269 312.5> 538 49<98 163>
VStem: 98 113<538 587> 163 48<66.4563 538>
LayerCount: 2
Fore
SplineSet
98 587 m 1xe0
 211 587 l 5xe0
 211 110 l 6
 211 63 261.5 43 312.5 43 c 1
 312.5 -4 l 1
 237.5 -4 163 29 163 110 c 2
 163 538 l 1xd0
 98 538 l 1
 98 587 l 1xe0
EndSplineSet
Validated: 524289
EndChar

StartChar: m
Encoding: 333 109 77
Width: 500
VWidth: -12668
Flags: W
HStem: 0 21G<90 139 259 309 429 478> 388 43<167.584 236.311>
VStem: 90 49<0 357.64 389 416> 259 50<0 359.682> 429 49<0 371.341>
CounterMasks: 1 38
LayerCount: 2
Fore
SplineSet
166 431 m 0
 206 431 241 389 244 362 c 1
 247 390 282 432 334 432 c 0
 413 432 438 360 438 290 c 2
 438 0 l 1
 389 0 l 1
 389 290 l 2
 389 329 378 393 332 387 c 0
 294 382 269 334 269 290 c 2
 269 0 l 1
 219 0 l 1
 219 290 l 2
 219 324 204 390 158 388 c 0
 121 386 99 310 99 290 c 2
 99 0 l 1
 50 0 l 1
 50 416 l 1
 99 416 l 1
 99 389 l 2
 105 409 126 431 166 431 c 0
EndSplineSet
Validated: 33
EndChar

StartChar: n
Encoding: 334 110 78
Width: 500
VWidth: -12668
Flags: W
HStem: 0 21G<90.5 139.5 343.5 393.5> 386 47<181.463 310.313> 403 20G<90.5 139.5> 403 20G<90.5 139.5>
VStem: 90.5 49<0 343.81 391 423> 343.5 50<0 351.859>
LayerCount: 2
Fore
SplineSet
230 433 m 0xcc
 316 432 383 386 384 288 c 2
 384 0 l 1
 334 0 l 1
 334 288 l 2
 333 346 301 385 229 386 c 0xcc
 179 384 148 348 130 304 c 1
 130 0 l 1
 81 0 l 1
 81 423 l 1
 130 423 l 1xac
 130 391 l 1
 153 421 185 433 230 433 c 0xcc
EndSplineSet
Validated: 1
EndChar

StartChar: o
Encoding: 335 111 79
Width: 500
VWidth: -12653
Flags: W
HStem: -6 42<221.804 360.196> 383 47<217.981 364.019>
VStem: 94 49<115.576 299.978> 439 49<115.576 299.978>
LayerCount: 2
Fore
SplineSet
248 430 m 0
 359 430 445 332 445 207 c 0
 445 82 359 -6 248 -6 c 0
 137 -6 51 82 51 207 c 0
 51 332 137 430 248 430 c 0
248 383 m 0
 168 383 100 309 100 207 c 0
 100 105 168 36 248 36 c 0
 328 36 396 105 396 207 c 0
 396 309 328 383 248 383 c 0
EndSplineSet
Validated: 1
EndChar

StartChar: p
Encoding: 336 112 80
Width: 500
VWidth: -12602
Flags: W
HStem: -136 21G<42 91> -4 48<155.888 289.024> 391 49<154.815 291.147> 410 20G<42 91>
VStem: 42 49<-136 63 111.787 323.852 372 430> 361 47<123.829 312.024>
LayerCount: 2
Fore
SplineSet
223 440 m 4xec
 327 440 408 343 408 218 c 4
 408 93 327 -4 223 -4 c 4
 168 -4 122 17 91 63 c 5
 91 -136 l 5
 42 -136 l 5
 42 430 l 5
 91 430 l 5xdc
 91 372 l 5
 122 418 168 440 223 440 c 4xec
223 391 m 4xec
 149 391 85 319 85 218 c 4
 85 117 149 44 223 44 c 4
 297 44 361 117 361 218 c 4
 361 319 297 391 223 391 c 4xec
EndSplineSet
Validated: 1
EndChar

StartChar: q
Encoding: 337 113 81
Width: 500
VWidth: -12602
Flags: W
HStem: -137 21G<355 404> -7 51<159.923 296.395> 390 50<159.923 296.395> 408 20G<355 404>
VStem: 44 46<122.802 311.111> 355 49<-137 61 374 428> 367 37<132.121 301.879>
LayerCount: 2
Fore
SplineSet
228 440 m 4xec
 282 440 326 419 355 374 c 5
 355 428 l 6
 371 428 388 428 404 428 c 6xdc
 404 -137 l 5
 355 -137 l 5
 355 61 l 5
 326 16 282 -7 228 -7 c 4
 124 -7 44 92 44 217 c 4
 44 342 124 440 228 440 c 4xec
228 390 m 4xea
 154 390 90 318 90 217 c 4
 90 116 154 44 228 44 c 4
 302 44 367 116 367 217 c 4
 367 318 302 390 228 390 c 4xea
EndSplineSet
Validated: 1
EndChar

StartChar: r
Encoding: 338 114 82
Width: 500
VWidth: -12668
Flags: W
HStem: 0 35<54 93 142 177> 386 42<233.588 332.106>
VStem: 93 49<35 290.919 340 424>
LayerCount: 2
Fore
SplineSet
288 428 m 4
 350 428 384 383 384 383 c 5
 343 354 l 5
 343 354 321 386 288 386 c 4
 224 386 169 301 142 258 c 5
 142 35 l 5
 177 35 l 5
 177 0 l 5
 54 0 l 5
 54 35 l 5
 93 35 l 5
 93 424 l 5
 142 424 l 5
 142 340 l 5
 173 383 221 428 288 428 c 4
EndSplineSet
Validated: 1
EndChar

StartChar: s
Encoding: 339 115 83
Width: 500
VWidth: -2060
Flags: W
HStem: -12.5 50<145.527 298.006>
VStem: 74.5 311<117.5 323.5>
LayerCount: 2
Fore
SplineSet
231.5 455.5 m 0
 277.5 455.5 314.5 442.5 361.5 413.5 c 1
 341.5 368.5 l 1
 341.5 368.5 281.5 413.5 230.5 410.5 c 0
 180.5 415.5 130.5 382.5 123.5 323.5 c 0
 117.5 268.5 166.5 252.5 228.5 248.5 c 0
 308.5 243.5 390.5 220.5 385.5 117.5 c 0
 381.5 41.5 297.5 -11.5 217.5 -12.5 c 0
 136.5 -13.5 56.5 52.5 56.5 52.5 c 1
 84.5 99.5 l 1
 84.5 99.5 153.5 38.5 221.5 37.5 c 0
 269.5 36.5 327.5 61.5 335.5 117.5 c 0
 343.5 173.5 287.5 194.5 221.5 198.5 c 0
 143.5 203.5 73 228.5 74.5 323.5 c 0
 75.733 401.593 140.5 455.5 231.5 455.5 c 0
EndSplineSet
Validated: 524321
EndChar

StartChar: t
Encoding: 340 116 84
Width: 500
VWidth: -12633
Flags: W
HStem: -5 41.334<187.766 304.422> 379 45.8662<65 110 159 321>
VStem: 110 49.666<62.4182 379 424.866 487>
LayerCount: 2
Fore
SplineSet
110 487 m 1
 159 487 l 1
 159 424.866 l 1
 321 424.866 l 1
 321 379 l 1
 159 379 l 1
 159.666 122.334 l 2
 159.666 73.334 193.666 36.334 242.666 36.334 c 0
 271 36.334 311 60 341 77 c 1
 362 37 l 1
 321 16 268.333 -5 242 -5 c 0
 164 -5 110 46 110 124 c 2
 110 379 l 1
 65 379 l 1
 65 424.866 l 1
 110 424.866 l 1
 110 487 l 1
EndSplineSet
Validated: 524289
EndChar

StartChar: u
Encoding: 341 117 85
Width: 500
VWidth: -12663
Flags: W
HStem: 0 50<135.503 245.968> 405 20G<57 107 297 346> 405 20G<57 107 297 346>
VStem: 57 50<80.1372 425> 297 49<103.325 425>
LayerCount: 2
Fore
SplineSet
297 425 m 5xd8
 346 425 l 5
 346 322 347 240 346 138 c 4
 350 99 370.5 34 383.5 0 c 5
 328 0 l 5
 328 0 310.167 40 306.5 70 c 5
 294.5 36 245 0 190 0 c 4
 113 1 57 60 57 154 c 6
 57 425 l 5
 107 425 l 5
 107 154 l 6
 108 97 131 50 194 50 c 4
 241 51 286 104 297 153 c 6
 297 425 l 5xd8
EndSplineSet
Validated: 524321
EndChar

StartChar: v
Encoding: 342 118 86
Width: 500
VWidth: -12674
Flags: W
HStem: 0 21G<214.388 276.753> 405 20G<40 99.6351 393.309 454> 405 20G<40 99.6351 393.309 454>
LayerCount: 2
Fore
SplineSet
402 425 m 5xc0
 454 425 l 5
 268 0 l 5
 223 0 l 5
 40 425 l 5
 91 425 l 5
 246 66 l 5
 402 425 l 5xc0
EndSplineSet
Validated: 1
EndChar

StartChar: w
Encoding: 343 119 87
Width: 500
VWidth: -12674
Flags: W
HStem: 0 21G<106.435 167.5 331.583 392.565> 405 20G<14 68.5697 431.371 485> 405 20G<14 68.5697 431.371 485>
LayerCount: 2
Fore
SplineSet
436 425 m 1xc0
 485 425 l 1
 388 0 l 1
 339 0 l 1
 250 240 l 1
 160 0 l 1
 111 0 l 1
 14 425 l 1
 64 425 l 1
 141 88 l 1
 250 360 l 1
 358 88 l 1
 436 425 l 1xc0
EndSplineSet
Validated: 1
EndChar

StartChar: x
Encoding: 344 120 88
Width: 500
VWidth: -12674
Flags: W
HStem: 0 21G<18 97.033 375.637 455> 405 20G<21 96.3563 362.759 443> 405 20G<21 96.3563 362.759 443>
LayerCount: 2
Fore
SplineSet
79 425 m 5xc0
 230 251 l 5
 380 425 l 5
 443 425 l 5
 268 220 l 5
 455 0 l 5
 393 0 l 5
 235 182 l 5
 80 0 l 5
 18 0 l 5
 197 213 l 5
 21 425 l 5
 79 425 l 5xc0
EndSplineSet
Validated: 1
EndChar

StartChar: y
Encoding: 345 121 89
Width: 500
VWidth: -12607
Flags: W
HStem: 403 20G<37 96.5449 357.331 417> 403 20G<37 96.5449 357.331 417>
LayerCount: 2
Fore
SplineSet
366 423 m 5x80
 417 423 l 5
 174 -142 l 5
 122 -142 l 5
 199 37 l 5
 37 423 l 5
 88 423 l 5
 226 100 l 5
 366 423 l 5x80
EndSplineSet
Validated: 1
EndChar

StartChar: z
Encoding: 346 122 90
Width: 500
VWidth: -12668
Flags: W
HStem: 0 45<117 377.728> 377.5 47.5<163.498 331>
LayerCount: 2
Fore
SplineSet
64.667 416 m 1
 78.5 427.034 120.5 424.867 377 425 c 1
 401 386 l 1
 117 45 l 1
 159 45 213 46 258 46 c 0
 316.034 46 352 52 379 68 c 1
 401 21 l 1
 356 -5 308.533 0 248.5 0 c 0
 65.5 0 l 1
 45 38 l 1
 331 377.5 l 1
 184.5 377.5 96.5 379.167 84.167 369.5 c 1
 64.667 416 l 1
EndSplineSet
Validated: 524321
EndChar

StartChar: braceleft
Encoding: 347 123 91
Width: 500
VWidth: -10748
Flags: W
HStem: -56.9004 42<288.074 340> 237.1 42<158 203.768> 545.1 42<288.074 340>
VStem: 228 42<0.42231 221.777 306.826 529.777>
LayerCount: 2
Fore
SplineSet
340 587.1 m 5
 340 545.1 l 5
 298 545.1 298 545.1 284 517.1 c 4
 270 489.1 270 461.1 270 419.1 c 4
 270 377.1 270 335.1 256 307.1 c 4
 242 293.1 242 279.1 228 265.1 c 5
 242 251.1 242 237.1 256 223.1 c 4
 270 195.1 270 153.1 270 111.1 c 4
 270 69.0996 270 41.0996 284 13.0996 c 4
 298 -14.9004 298 -14.9004 340 -14.9004 c 5
 340 -56.9004 l 5
 284 -56.9004 256 -28.9004 242 -0.900391 c 4
 228 27.0996 228 69.0996 228 111.1 c 4
 228 153.1 228 181.1 214 209.1 c 4
 200 237.1 200 237.1 158 237.1 c 5
 158 279.1 l 5
 200 279.1 200 293.1 214 321.1 c 4
 228 349.1 228 377.1 228 419.1 c 4
 228 461.1 228 503.1 242 531.1 c 4
 256 559.1 284 587.1 340 587.1 c 5
EndSplineSet
Validated: 524289
EndChar

StartChar: bar
Encoding: 348 124 92
Width: 500
VWidth: -10793
Flags: W
HStem: -1 21G<229 271>
VStem: 229 42<-1 545>
LayerCount: 2
Fore
SplineSet
229 545 m 1
 271 545 l 1
 271 -1 l 1
 229 -1 l 1
 229 545 l 1
EndSplineSet
Validated: 1
EndChar

StartChar: braceright
Encoding: 349 125 93
Width: 500
VWidth: -10748
Flags: W
HStem: -56.9004 42<160 210.176> 251.1 42<296.232 342> 545.1 42<160 210.176>
VStem: 230 42<14.4122 223.373 308.407 515.787>
LayerCount: 2
Fore
SplineSet
160 -56.9004 m 1
 160 -14.9004 l 5
 202 -13.3259 202 -9.91154 216 13.0996 c 5
 230 41.0996 230 69.0996 230 111.1 c 0
 230 153.1 230 195.1 244 223.1 c 1
 249.5 232.25 258.215 251.101 272 265.1 c 1
 258 279.1 249.75 296.25 244 307.1 c 0
 229.341 334.76 230 377.1 230 419.1 c 0
 230 461.1 230 489.1 216 517.1 c 1
 203.181 535.858 202.547 540.821 160 545.1 c 1
 160 587.1 l 1
 216 587.1 244 559.1 258 531.1 c 0
 272 503.1 272 461.1 272 419.1 c 0
 272 377.1 272 349.1 286 321.1 c 0
 300 293.1 300 293.1 342 293.1 c 1
 342 251.1 l 1
 300 251.1 300 237.1 286 209.1 c 0
 272 181.1 272 153.1 272 111.1 c 0
 272 69.0996 272 27.0996 258 -0.900391 c 0
 244 -28.9004 216 -56.9004 160 -56.9004 c 1
EndSplineSet
Validated: 524321
EndChar

StartChar: asciitilde
Encoding: 350 126 94
Width: 500
VWidth: -11008
Flags: W
LayerCount: 2
Fore
SplineSet
73.4062 240.73 m 1
 131.539 269.264 196.221 266.01 260.219 239.855 c 0
 307.838 220.4 343.33 204.678 407.656 240.293 c 1
 427.781 203.543 l 1
 351.574 161.352 292.84 181.955 244.906 200.918 c 0
 196.973 219.881 159.566 236.984 92.2188 203.105 c 1
 73.4062 240.73 l 1
EndSplineSet
Validated: 524321
EndChar

StartChar: acute
Encoding: 351 180 95
Width: 500
VWidth: -12597
Flags: W
HStem: 539.1 105.4
LayerCount: 2
Fore
SplineSet
279 644.5 m 1
 214 644.5 l 1
 185 539.5 l 1
 226 539.1 l 1
 279 644.5 l 1
EndSplineSet
Validated: 524289
EndChar

StartChar: section
Encoding: 352 167 96
Width: 500
VWidth: -10818
Flags: W
HStem: -31.25 42<185.749 297.246> 419.812 42<180.305 293.586>
VStem: 121.875 42<315.858 403.115> 322.688 42<34.7374 130.5>
LayerCount: 2
Fore
SplineSet
238.688 461.812 m 0
 277.475 461.443 312.762 443.752 328.375 423.75 c 1
 309.125 383.938 l 1
 309.125 383.938 279.279 423.381 238.688 419.812 c 0
 193.242 419.812 164.75 396.707 163.875 359.438 c 0
 163.328 313.186 200.584 284.967 255.312 274.562 c 0
 324.67 257.76 396.557 211.48 360.312 122.312 c 0
 363.102 110.801 364.688 98.1953 364.688 84.25 c 0
 364.688 17.6816 307.539 -31.25 243.062 -31.25 c 0
 205.055 -30.6621 160.744 -6.6543 123.625 22.125 c 1
 143.75 61.5 l 1
 176.631 42.8379 197.207 9.82031 243.062 10.75 c 0
 286.84 10.75 322.688 41.4434 322.688 84.25 c 0
 322.209 130.57 290.49 162.754 233.438 172.625 c 0
 167.717 187.213 91.0859 227.996 128 315.25 c 0
 123.871 328.184 121.875 343.045 121.875 359.438 c 0
 121.875 430.873 173.637 461.812 238.688 461.812 c 0
155.562 271.5 m 1
 162.932 234.449 203.701 221.543 242.625 213.312 c 0
 271.828 206.805 310.287 197.727 333.625 172.625 c 1
 324.697 210.223 284.844 224.51 245.25 233.875 c 0
 216.908 240.697 180.35 249.365 155.562 271.5 c 1
EndSplineSet
Validated: 524321
EndChar

StartChar: degree
Encoding: 353 176 97
Width: 500
VWidth: -10935
Flags: W
HStem: 290.343 45.0352<-45.2524 62.4067> 485.468 45.0352<-45.2524 62.4067>
VStem: -111.503 45.0352<356.593 464.252> 83.6221 45.0352<356.593 464.252>
LayerCount: 2
Fore
SplineSet
8.57715 530.503 m 0
 73.8057 530.503 128.657 475.651 128.657 410.423 c 0
 128.657 345.194 73.8057 290.343 8.57715 290.343 c 0
 -56.6514 290.343 -111.503 345.194 -111.503 410.423 c 0
 -111.503 475.651 -56.6514 530.503 8.57715 530.503 c 0
8.57715 485.468 m 0
 -33.9561 485.468 -66.4678 452.956 -66.4678 410.423 c 0
 -66.4678 367.89 -33.9561 335.378 8.57715 335.378 c 0
 51.1104 335.378 83.6221 367.89 83.6221 410.423 c 0
 83.6221 452.956 51.1104 485.468 8.57715 485.468 c 0
EndSplineSet
Validated: 524289
EndChar

StartChar: guillemotleft
Encoding: 354 171 98
Width: 500
VWidth: -10917
Flags: W
HStem: 70 280
VStem: 122.188 210.875
LayerCount: 2
Fore
SplineSet
186.938 350 m 5
 224.562 330.75 l 5
 164.625 212.625 l 5
 228.062 89.25 l 5
 190.438 70 l 5
 122.188 203 l 5
 122.188 222.25 l 5
 186.938 350 l 5
295.438 350 m 5
 333.062 330.75 l 5
 273.125 212.625 l 5
 336.562 89.25 l 5
 298.938 70 l 5
 230.688 203 l 5
 230.688 222.25 l 5
 295.438 350 l 5
EndSplineSet
Validated: 524289
EndChar

StartChar: guillemotright
Encoding: 355 187 99
Width: 500
VWidth: -10917
Flags: W
LayerCount: 2
Fore
SplineSet
299.938 355.25 m 1
 262.312 336 l 1
 322.25 217.875 l 1
 258.812 94.5 l 1
 296.438 75.25 l 1
 364.688 208.25 l 1
 364.688 227.5 l 1
 299.938 355.25 l 1
191.438 355.25 m 1
 153.812 336 l 1
 213.75 217.875 l 1
 150.312 94.5 l 1
 187.938 75.25 l 1
 256.188 208.25 l 1
 256.188 227.5 l 1
 191.438 355.25 l 1
EndSplineSet
Validated: 524297
EndChar

StartChar: dieresis
Encoding: 356 168 100
Width: 500
VWidth: -10987
Flags: W
HStem: 426.04 128.652<96.925 194.016 291.953 386.988>
VStem: 81.1445 128.652<441.821 538.912> 275.145 128.652<440.821 537.912>
LayerCount: 2
Fore
SplineSet
339.471 553.692 m 0
 374.717 553.692 403.797 524.612 403.797 489.366 c 0
 403.797 454.12 374.717 425.04 339.471 425.04 c 0
 304.225 425.04 275.145 454.12 275.145 489.366 c 0
 275.145 524.612 304.225 553.692 339.471 553.692 c 0
145.471 554.692 m 0
 180.717 554.692 209.797 525.612 209.797 490.366 c 0
 209.797 455.12 180.717 426.04 145.471 426.04 c 0
 110.225 426.04 81.1445 455.12 81.1445 490.366 c 0
 81.1445 525.612 110.225 554.692 145.471 554.692 c 0
EndSplineSet
Validated: 524289
EndChar

StartChar: logicalnot
Encoding: 357 172 101
Width: 500
VWidth: -10871
InSpiro: 1
Flags: W
HStem: 276.243 132.757
LayerCount: 2
Fore
SplineSet
87.5 409 m 1
 87.5312 366.1 l 1
 379.211 366.429 l 1
 378.891 276.243 l 1
 433.5 276 l 1
 433.501 408.84 l 1
 415.773 408.894 l 1
 87.5 409 l 1
  Spiro
    87.5 409 v
    87.5312 366.1 v
    379.211 366.429 v
    378.891 276.243 v
    433.5 276 v
    433.501 408.84 v
    415.773 408.894 v
    0 0 z
  EndSpiro
EndSplineSet
Validated: 524297
EndChar

StartChar: igrave
Encoding: 379 236 123
Width: 500
VWidth: 0
Flags: HW
LayerCount: 2
Fore
SplineSet
139.167 426.1 m 1
 277 426.1 l 1
 277 42.834 l 1
 351.75 43 l 1
 351.75 0 l 1
 144.75 0 l 1
 144.75 43 l 1
 226 42.834 l 1
 226 382.1 l 1xe8
 139.167 382.1 l 1
 139.167 426.1 l 1
176.959 642.744 m 5
 241.959 642.744 l 5
 270.959 537.744 l 5
 229.959 537.344 l 5
 176.959 642.744 l 5
EndSplineSet
Validated: 6815745
EndChar

StartChar: igrave
Encoding: 380 236 124
Width: 500
VWidth: 0
Flags: HW
LayerCount: 2
Fore
SplineSet
139.167 426.1 m 1
 277 426.1 l 1
 277 42.834 l 1
 351.75 43 l 1
 351.75 0 l 1
 144.75 0 l 1
 144.75 43 l 1
 226 42.834 l 1
 226 382.1 l 1xe8
 139.167 382.1 l 1
 139.167 426.1 l 1
174.459 644.101 m 1
 239.459 644.101 l 1
 268.459 539.101 l 1
 227.459 538.7 l 1
 174.459 644.101 l 1
EndSplineSet
Validated: 6815745
EndChar

StartChar: iacute
Encoding: 381 237 125
Width: 500
VWidth: 0
Flags: HW
LayerCount: 2
Fore
SplineSet
139.167 426.1 m 1
 277 426.1 l 1
 277 42.834 l 1
 351.75 43 l 1
 351.75 0 l 1
 144.75 0 l 1
 144.75 43 l 1
 226 42.834 l 1
 226 382.1 l 1xe8
 139.167 382.1 l 1
 139.167 426.1 l 1
310.959 640.744 m 5
 245.959 640.744 l 5
 216.959 535.744 l 5
 257.959 535.344 l 5
 310.959 640.744 l 5
EndSplineSet
Validated: 524289
EndChar

StartChar: icircumflex
Encoding: 382 238 126
Width: 500
VWidth: 0
Flags: HW
LayerCount: 2
Fore
SplineSet
139.167 426.1 m 1
 277 426.1 l 1
 277 42.834 l 1
 351.75 43 l 1
 351.75 0 l 1
 144.75 0 l 1
 144.75 43 l 1
 226 42.834 l 1
 226 382.1 l 1xe8
 139.167 382.1 l 1
 139.167 426.1 l 1
234.459 721.344 m 5
 368.959 560.344 l 5
 333.959 533.344 l 5
 235.959 656.344 l 5
 139.959 532.344 l 5
 105.959 559.344 l 5
 234.459 721.344 l 5
EndSplineSet
Validated: 524289
EndChar

StartChar: idieresis
Encoding: 383 239 127
Width: 500
VWidth: 0
Flags: HW
LayerCount: 2
Fore
SplineSet
139.167 426.1 m 1
 277 426.1 l 1
 277 42.834 l 1
 351.75 43 l 1
 351.75 0 l 1
 144.75 0 l 1
 144.75 43 l 1
 226 42.834 l 1
 226 382.1 l 1xe8
 139.167 382.1 l 1
 139.167 426.1 l 1
333.459 663.996 m 4
 368.705 663.996 397.785 634.916 397.785 599.67 c 4
 397.785 564.424 368.705 535.344 333.459 535.344 c 4
 298.213 535.344 269.133 564.424 269.133 599.67 c 4
 269.133 634.916 298.213 663.996 333.459 663.996 c 4
139.459 664.996 m 4
 174.705 664.996 203.785 635.916 203.785 600.67 c 4
 203.785 565.424 174.705 536.344 139.459 536.344 c 4
 104.213 536.344 75.1328 565.424 75.1328 600.67 c 4
 75.1328 635.916 104.213 664.996 139.459 664.996 c 4
EndSplineSet
Validated: 524289
EndChar

StartChar: ae
Encoding: 385 230 129
Width: 1024
VWidth: 0
HStem: -6.55371 48.167<233.135 339.808> 196.044 48.167<413.7 556.214>
VStem: 170.385 47.1738<55.4171 161.666> 370.5 43.2002<84.0891 196.044> 556.214 47.1738<244.211 358.811>
LayerCount: 2
Fore
SplineSet
485.702 439.359 m 4
 597.91 437.823 602.456 283.269 603.388 196.262 c 5
 540.153 195.702 476.935 196.23 413.7 196.044 c 5
 416.587 144.852 423.368 46.2217 489.675 40.6201 c 4
 522.354 37.873 554.398 70.6309 567.139 107.159 c 5
 612.822 95.7383 l 5
 593.953 37.2988 560.559 -1.52539 495.137 -4.56738 c 4
 454.869 -6.42969 411.994 21.6729 393.342 61.4756 c 5
 381.3 17.7627 329.688 -2.9375 279.132 -6.55371 c 4
 210.669 -6.10352 169.516 50.2715 170.385 123.049 c 4
 171.626 227.219 280.56 237.755 369.01 244.211 c 5
 368.079 292.765 369.444 383.419 302.967 390.2 c 4
 246.979 395.926 229.973 348.488 229.973 348.488 c 5
 187.269 369.841 l 5
 187.269 369.841 222.183 438.366 302.967 438.366 c 4
 343.98 438.366 375.372 412.483 391.355 376.793 c 5
 409.247 407.223 440.096 439.996 485.702 439.359 c 4
485.702 390.696 m 4
 427.263 395.15 406.795 298.817 412.211 244.211 c 5
 556.214 244.211 l 5
 555.236 298.367 550.286 385.793 485.702 390.696 c 4
370.5 196.044 m 5
 323.513 193.856 220.305 185.942 217.559 121.063 c 4
 215.82 80.3291 230.174 41.7988 279.132 41.6133 c 4
 358.505 41.334 372.471 106.647 370.5 196.044 c 5
EndSplineSet
Validated: 524321
EndChar

StartChar: uni00B2
Encoding: 404 178 148
Width: 500
VWidth: 0
Flags: W
HStem: 313.1 44<199.833 327.167> 546.1 41<194.864 286.589>
VStem: 134.833 47<486.1 534.365> 294.833 43<466.146 537.104>
LayerCount: 2
Fore
SplineSet
238.833 587.1 m 1
 280.833 587.1 337.833 561.1 337.833 492.699 c 1
 337.833 406.1 212.5 413.1 199.833 357.1 c 1
 327.167 356.1 l 2
 333.169 313.099 l 1
 333.167 313.1 l 2
 159.833 313.1 l 1
 132.833 313.1 l 1
 147.167 459.1 294.833 437.767 294.833 495.699 c 0
 294.833 542.767 253.833 546.1 238.833 546.1 c 0
 233.833 546.1 184.833 547.1 181.833 486.1 c 0
 134.833 486.1 l 1
 135.833 563.1 194.833 587.1 238.833 587.1 c 1
EndSplineSet
Validated: 524321
EndChar

StartChar: cedilla
Encoding: 405 184 149
Width: 500
VWidth: -10964
Flags: W
HStem: -118.103 180.429<244.312 259.459>
VStem: 218.5 99.168
LayerCount: 2
Fore
SplineSet
244.312 59.4541 m 1
 317.668 62.3262 l 5
 315.694 -12.7971 289.619 -74.5743 254.594 -118.103 c 5
 218.5 -110.296 l 1
 244.12 -54.9971 254.349 1.48938 244.312 59.4541 c 1
EndSplineSet
Validated: 524321
EndChar

StartChar: paragraph
Encoding: 406 182 150
Width: 500
VWidth: -12564
Flags: W
HStem: 0 21G<365.542 415.542> 232 50<149.735 216> 490 49<144.344 218>
VStem: 59 49<322.94 453.167> 365.542 50<0 538.225>
LayerCount: 2
Fore
SplineSet
415.542 538.225 m 1
 415.542 0 l 1
 365.542 0 l 1
 365.542 538.225 l 1
 415.542 538.225 l 1
332.042 538.125 m 1
 280.042 538.125 270 539 218 539 c 0
 135 537 59 481 59 386 c 0
 59 300 125 232 216 232 c 2
 255.542 232 l 1
 255.542 282 l 1
 216 282 l 2
 162.99 282 107 322 108 386 c 0
 109 452 147.939 490.957 218 490 c 2
 282.042 489.125 l 1
 282.042 0.125 l 1
 332.042 0.125 l 1
 332.042 538.125 l 1
EndSplineSet
Validated: 524329
EndChar

StartChar: plusminus
Encoding: 407 177 151
Width: 500
VWidth: -10878
Flags: W
HStem: 5.09961 42<75 424.875> 224.201 42<74.917 228.917 270.917 424.917>
VStem: 228.917 42<62.5996 224.201 266.201 420.201>
LayerCount: 2
Fore
SplineSet
75 47.0996 m 1
 424.875 47.0996 l 1
 424.875 5.09961 l 1
 75 5.09961 l 1
 75 47.0996 l 1
228.917 420.201 m 1
 270.917 420.201 l 1
 270.917 266.201 l 1
 424.917 266.201 l 1
 424.917 224.201 l 1
 270.917 224.201 l 1
 270.917 62.5996 l 1
 228.917 62.5996 l 1
 228.917 224.201 l 1
 74.917 224.201 l 1
 74.917 266.201 l 1
 228.917 266.201 l 1
 228.917 420.201 l 1
EndSplineSet
Validated: 524289
EndChar

StartChar: uni00B5
Encoding: 408 181 152
Width: 500
VWidth: -12663
Flags: W
HStem: -135 21G<7.125 68.7623> 0 50<134.546 245.968> 405 20G<57 107 297 346> 405 20G<57 107 297 346>
VStem: 7.125 55.5<-135 -45.3435> 57 50<78.8765 425> 297 49<103.325 425>
LayerCount: 2
Fore
SplineSet
297 425 m 1xe6
 346 425 l 1
 346 322 347 240 346 138 c 1
 350 99 370.5 34 383.5 0 c 1
 328 0 l 1
 328 0 310.167 40 306.5 70 c 1
 294.5 36 245 0 190 0 c 0
 151.179 0.504169 117.696 15.7512 94.036 42.7935 c 1
 86.0051 -18.4682 74.8996 -90.8278 62.625 -135 c 1
 7.125 -135 l 1xea
 31.3154 -46.9062 49.2242 50.7075 57 154 c 1
 57 425 l 1
 107 425 l 1
 107 154 l 1
 108 97 131 50 194 50 c 1
 241 51 286 104 297 153 c 1
 297 425 l 1xe6
EndSplineSet
Validated: 524321
EndChar

StartChar: uni00B9
Encoding: 409 185 153
Width: 500
VWidth: 0
Flags: HW
HStem: 424.866 162.234<245 291>
VStem: 245 46<424.866 539.099>
LayerCount: 2
Fore
SplineSet
241 587.101 m 1
 291 587.101 l 1
 291 383.866 l 5
 245 383.866 l 5
 245 539.099 l 1
 195.667 503.265 l 1
 166.995 533.601 l 1
 241 587.101 l 1
EndSplineSet
Validated: 524289
EndChar

StartChar: uni00B3
Encoding: 410 179 154
Width: 500
VWidth: 0
Flags: HW
LayerCount: 2
Fore
SplineSet
269.166 457 m 0
 251.333 491.788 l 1
 298.833 539.1 l 1
 176.333 539.1 l 1
 176.333 586.1 l 1
 354.833 586.1 l 1
 369.333 548 l 1
 318.333 492.788 l 1
 318.333 492.788 395.666 478 395.666 393.831 c 0
 395.666 354.369 342.334 291.5 269.333 291.5 c 1
 205.539 291.498 159.334 346.5 142 384.001 c 1
 187.333 410 l 1
 202.334 375 225.474 340.499 270.833 340.5 c 1
 299.061 340.5 351.333 355.538 349.333 398 c 0
 347.333 440.462 313.666 456.788 269.166 457 c 0
EndSplineSet
Validated: 524321
EndChar

StartChar: multiply
Encoding: 411 215 155
Width: 500
VWidth: -10878
Flags: HW
LayerCount: 2
Fore
SplineSet
106.457 325.544 m 1
 136.156 355.243 l 1
 245.05 246.349 l 1
 353.944 355.243 l 1
 383.644 325.545 l 1
 274.749 216.65 l 1
 393.543 97.8564 l 1
 363.844 68.1572 l 1
 245.05 186.951 l 1
 136.156 78.0566 l 1
 106.457 107.756 l 1
 215.352 216.65 l 1
 106.457 325.544 l 1
EndSplineSet
Validated: 524289
EndChar
